<?xml version="1.0" encoding="UTF-8"?>
<svg id="Gridlines" xmlns="http://www.w3.org/2000/svg" viewBox="0 0 1883 1404">
  <defs>
    <style>
      .cls-1 {
        fill: #ee5627;
      }
    </style>
  </defs>
  <polygon class="cls-1" points="1693 1087.22 1670.85 1087.22 1670.85 268.36 219.85 495.04 219.85 1064.64 958.24 1064.64 1049.9 835.43 1141.55 1064.64 1295.46 1064.64 1479.51 604.34 1340.5 604.34 1208.82 933.66 1109.72 685.82 1142.3 604.34 1022.65 604.34 890.97 933.66 759.29 604.34 591.67 604.34 591.67 582.19 774.29 582.19 890.97 874 1007.65 582.19 1175.01 582.19 1133.57 685.82 1208.82 874 1325.5 582.19 1512.22 582.19 1310.46 1086.79 1126.55 1086.79 1049.9 895.09 973.24 1086.79 197.7 1086.79 197.7 476.08 1693 242.48 1693 1087.22"/>
</svg>